<svg id="Layer_1" enable-background="new 0 0 256 256" height="512" viewBox="0 0 256 256" width="512" xmlns="http://www.w3.org/2000/svg"><g><g fill="#65c1d6"><path d="m117.684 95.082c-3.59 0-6.511-2.921-6.511-6.511s2.921-6.511 6.511-6.511 6.51 2.921 6.51 6.511-2.921 6.511-6.51 6.511zm0-8.021c-.833 0-1.511.678-1.511 1.511s.678 1.511 1.511 1.511c.832 0 1.51-.678 1.51-1.511s-.678-1.511-1.51-1.511z"/><path d="m138.316 95.082c-3.59 0-6.51-2.921-6.51-6.511s2.92-6.511 6.51-6.511 6.511 2.921 6.511 6.511-2.921 6.511-6.511 6.511zm0-8.021c-.832 0-1.51.678-1.51 1.511s.678 1.511 1.51 1.511c.833 0 1.511-.678 1.511-1.511s-.678-1.511-1.511-1.511z"/><path d="m137.446 153.347c-1.381 0-2.5-1.119-2.5-2.5v-14.184c0-1.381 1.119-2.5 2.5-2.5s2.5 1.119 2.5 2.5v14.184c0 1.381-1.119 2.5-2.5 2.5z"/><path d="m118.554 153.347c-1.381 0-2.5-1.119-2.5-2.5v-14.184c0-1.381 1.119-2.5 2.5-2.5s2.5 1.119 2.5 2.5v14.184c0 1.381-1.119 2.5-2.5 2.5z"/></g><path d="m134.146 173.567h-12.293c-1.381 0-2.5-1.119-2.5-2.5s1.119-2.5 2.5-2.5h12.293c1.381 0 2.5 1.119 2.5 2.5s-1.119 2.5-2.5 2.5z" fill="#ebe7f2"/><path d="m134.146 165.309h-12.293c-1.381 0-2.5-1.119-2.5-2.5s1.119-2.5 2.5-2.5h12.293c1.381 0 2.5 1.119 2.5 2.5s-1.119 2.5-2.5 2.5z" fill="#ebe7f2"/><g fill="#846f75"><path d="m128 61.34c-15.016 0-27.231 12.216-27.231 27.231s12.216 27.231 27.231 27.231 27.231-12.216 27.231-27.231-12.215-27.231-27.231-27.231zm2.5 49.318v-3.055c0-1.381-1.119-2.5-2.5-2.5s-2.5 1.119-2.5 2.5v3.055c-11.086-1.247-19.731-10.674-19.731-22.087s8.646-20.84 19.731-22.087v3.055c0 1.381 1.119 2.5 2.5 2.5s2.5-1.119 2.5-2.5v-3.055c11.086 1.247 19.731 10.674 19.731 22.087s-8.645 20.841-19.731 22.087z"/><path d="m168.397 117.591v-58.039c0-6.273-5.104-11.378-11.378-11.378h-58.039c-6.273 0-11.378 5.104-11.378 11.378v58.039c0 6.273 5.104 11.378 11.378 11.378h58.039c6.274 0 11.378-5.105 11.378-11.378zm-75.794 0v-58.039c0-3.517 2.861-6.378 6.378-6.378h58.039c3.517 0 6.378 2.861 6.378 6.378v58.039c0 3.517-2.861 6.378-6.378 6.378h-58.04c-3.516 0-6.377-2.862-6.377-6.378z"/><path d="m134.482 207.826c1.381 0 2.5-1.119 2.5-2.5v-10.464h2.886c1.381 0 2.5-1.119 2.5-2.5v-5.388c0-3.081 1.022-6.132 2.88-8.591 2.508-3.321 3.89-7.443 3.89-11.605v-14.684c0-1.381-1.119-2.5-2.5-2.5h-37.275c-1.381 0-2.5 1.119-2.5 2.5v14.684c0 4.162 1.382 8.284 3.89 11.605 1.857 2.459 2.88 5.51 2.88 8.591v5.388c0 1.381 1.119 2.5 2.5 2.5h2.886v10.464c0 1.381 1.119 2.5 2.5 2.5zm-19.74-32.456c-1.857-2.459-2.88-5.51-2.88-8.592v-12.184h32.275v12.184c0 3.082-1.022 6.133-2.88 8.592-2.508 3.321-3.89 7.442-3.89 11.604v2.888h-18.736v-2.888c.001-4.161-1.381-8.283-3.889-11.604zm17.24 19.492v7.964h-7.965v-7.964z"/><path d="m227.811 92.974h-20.354c-6.674 0-12.103 5.429-12.103 12.103v109.14c0 9.43-7.672 17.102-17.102 17.102h-35.649c-9.431 0-17.103-7.672-17.103-17.102 0-1.381-1.119-2.5-2.5-2.5s-2.5 1.119-2.5 2.5c0 12.187 9.915 22.102 22.103 22.102h35.649c12.187 0 22.102-9.915 22.102-22.102v-109.14c0-3.916 3.187-7.103 7.103-7.103h20.354c1.381 0 2.5-1.119 2.5-2.5s-1.12-2.5-2.5-2.5z"/><path d="m135.5 214.216c0-1.381-1.119-2.5-2.5-2.5s-2.5 1.119-2.5 2.5c0 6.673 5.429 12.102 12.103 12.102h35.649c6.673 0 12.102-5.429 12.102-12.102v-109.14c0-9.431 7.672-17.103 17.103-17.103h20.354c1.381 0 2.5-1.119 2.5-2.5s-1.119-2.5-2.5-2.5h-20.354c-12.188 0-22.103 9.915-22.103 22.103v109.14c0 3.916-3.186 7.102-7.102 7.102h-35.649c-3.916-.001-7.103-3.186-7.103-7.102z"/><path d="m28.189 167.631h20.354c6.674 0 12.103-5.429 12.103-12.102v-113.745c0-9.43 7.672-17.102 17.102-17.102h35.649c9.431 0 17.103 7.672 17.103 17.102 0 1.381 1.119 2.5 2.5 2.5s2.5-1.119 2.5-2.5c0-12.187-9.915-22.102-22.103-22.102h-35.649c-12.187 0-22.102 9.915-22.102 22.102v113.745c0 3.916-3.187 7.102-7.103 7.102h-20.354c-1.381 0-2.5 1.119-2.5 2.5s1.12 2.5 2.5 2.5z"/><path d="m120.5 41.784c0 1.381 1.119 2.5 2.5 2.5s2.5-1.119 2.5-2.5c0-6.673-5.429-12.102-12.103-12.102h-35.649c-6.673 0-12.102 5.429-12.102 12.102v113.745c0 9.43-7.672 17.102-17.103 17.102h-20.354c-1.381 0-2.5 1.119-2.5 2.5s1.119 2.5 2.5 2.5h20.354c12.188 0 22.103-9.915 22.103-22.102v-113.745c0-3.916 3.186-7.102 7.102-7.102h35.649c3.916.001 7.103 3.186 7.103 7.102z"/></g></g></svg>