<?xml version="1.0" encoding="iso-8859-1"?>
<!-- Generator: Adobe Illustrator 19.0.0, SVG Export Plug-In . SVG Version: 6.00 Build 0)  -->
<svg version="1.1" id="Capa_1" xmlns="http://www.w3.org/2000/svg" xmlns:xlink="http://www.w3.org/1999/xlink" x="0px" y="0px"
	 viewBox="0 0 469.127 469.127" style="enable-background:new 0 0 469.127 469.127;" xml:space="preserve">
<g>
	<g>
		<path d="M352.514,218.514c0-6.4-2-12.6-5.6-17.9c9.3-6,14.7-16,14.9-26.8c0-17.3-14.6-32.2-32-32.2h-37.5v-22
			c4.4-2.7,8.4-5.7,12.2-9.2c0.1-0.1,0.2-0.2,0.2-0.3c24.9-24.9,24.9-67.1,0-92c-6-6-13.1-10.5-22.3-14.2l-7.9-3.2
			c-3-1.2-6.4-0.9-9.1,1c-2.7,1.9-4.3,5-4.2,8.3v38.3c0,1.4-0.6,2-2,2c-1.4,0-2-0.6-2-2v-38.3c-0.2-5.7-4.9-10.2-10.6-10
			c-1.2,0-2.3,0.3-3.4,0.7l-7.9,3.1c-8.4,3.1-16,7.9-22.4,14.2c-12.2,12.2-18.9,28.8-18.8,46c-0.1,17.2,6.6,33.8,18.8,46.1
			c0.5,0.5,0.9,0.4,1.4,1.4h-39.3c-37.5,0-67.7,30.5-67.7,68c0,0.1,0,0.2,0,0.2v92.1c0,37.6,30.2,68.7,67.8,68.7h50.2v9
			c-4.3,2.7-8.4,5.7-12.2,9.2c-0.1,0.1-0.1,0.2-0.2,0.3c-25,25.6-25,66.5,0,92c6,6,13.1,10.5,22.3,14.2l7.9,3.2
			c3.2,1.2,6.7,0.9,9.5-1c2.8-1.8,4.5-4.9,4.6-8.3v-38.3c0-1.4,0.6-2,2-2c1.4,0,2,0.6,2,2v38.3c-0.1,3.3,1.5,6.4,4.2,8.3
			c2.7,1.9,6.1,2.2,9.1,1l7.8-3.1c8.4-3.1,16-7.9,22.3-14.2c24.9-24.9,25-67.1,0-92c-3.6-3.8-7.9-7-12.5-9.5v-9h15
			c12.8,0,27.7-14.2,27.7-32.2c0-6.2-1.9-12.3-5.3-17.5c8.9-6.4,14.2-16.6,14.4-27.5c0-6.6-2.1-13-5.9-18.3
			C347.014,239.114,352.414,229.114,352.514,218.514z M227.314,32.114c2.9-2.9,6.2-5.4,10-7.2v23.3c0,12.2,9.8,22,22,22
			c12.2,0,22-9.8,22-22v-23.2c3,2,6.7,4.3,9.5,7.1c17.2,17.2,17.2,46.3,0,63.6c-3.7,3.5-8,6.4-12.6,8.5c-3.6,1.6-5.9,5.2-5.9,9.1
			v28.2h-27v-28c0-3.9-2.2-7.5-5.8-9.1c-4.6-2-8.8-4.8-12.3-8.4C209.914,78.614,210.014,49.414,227.314,32.114z M290.714,436.914
			c-2.9,2.7-6.1,5.1-9.5,7.2v-23.3c0-12.2-9.8-22-22-22c-12.2,0-22,9.8-22,22v23.2c-3.7-1.8-7-4.2-10-7.1
			c-17.2-17.2-17.4-46.3-0.2-63.6c3.6-3.5,7.8-6.4,12.5-8.5c3.6-1.6,5.8-5.2,5.7-9.1v-15.2h27v15.1c0,3.9,2.3,7.5,5.8,9.1
			c4.6,2,8.9,4.8,12.5,8.4C307.814,390.414,308.014,419.614,290.714,436.914z M329.714,185.514h-12.1c-5.2,0-9.8,3.8-10.3,9
			c-0.6,5.9,4.1,11,10,11h0.3l0.7,0.2c1.2,0.3,2.5,0.5,3.7,0.6c5.8,0.8,10.6,6.2,10.6,12.1c0,6.4-5.6,12.2-12,12.2h-12.4
			c-5.5,0-10,4.4-10,9.8c0,5,3.5,9.1,8.2,9.9c0.9,0.2,1.8,0.4,2.6,0.7c0.9,0.3,1.9,0.5,2.9,0.5c6.4,0,12,5.7,12,12.1
			c0,6.7-5.8,11.1-7.7,12.1h-16.7c-5.5-0.1-9.9,4.3-10,9.7c-0.1,4.9,3.5,9.1,8.2,9.9c0.6,0.1,1.2,0.3,1.8,0.5c1,0.3,1.9,0.5,2.9,0.6
			c4.6,0.2,8.9,2.6,11,6.7c4.6,9.4-3.8,16.2-6.4,17.5h-132c-26.4,0-47.8-21.4-47.8-47.8v-93c-0.2-26.4,21.1-48,47.5-48.2
			c0.1,0,0.2,0,0.3,0h50.2v10h-26.2c-5.2,0-9.8,3.8-10.3,9c-0.6,5.9,4.1,11,10,11h130.6c6.2,0,11.7,4.6,12.3,10.8
			C342.414,179.514,336.714,185.514,329.714,185.514z"/>
	</g>
</g>
<g>
</g>
<g>
</g>
<g>
</g>
<g>
</g>
<g>
</g>
<g>
</g>
<g>
</g>
<g>
</g>
<g>
</g>
<g>
</g>
<g>
</g>
<g>
</g>
<g>
</g>
<g>
</g>
<g>
</g>
</svg>
