<?xml version="1.0"?>
<svg xmlns="http://www.w3.org/2000/svg" width="512" height="512" viewBox="0 0 128 128"><g><path d="M108.59,48.137A309.064,309.064,0,0,0,64,44.578a309.064,309.064,0,0,0-44.59,3.559,1.75,1.75,0,0,0-1.462,1.726v22.2a1.752,1.752,0,0,0,1.123,1.634l20.5,7.857a1.75,1.75,0,0,0,2.088-.672c.04-.061,4.049-6.148,8.827-13.023A15.851,15.851,0,0,1,63.87,61.142a1.88,1.88,0,0,0,.26,0,15.992,15.992,0,0,1,13.386,6.713c4.777,6.875,8.787,12.962,8.827,13.023a1.749,1.749,0,0,0,2.088.672l20.5-7.857a1.753,1.753,0,0,0,1.124-1.634v-22.2A1.75,1.75,0,0,0,108.59,48.137Zm-2.038,22.718L88.488,77.78c-1.4-2.11-4.538-6.8-8.1-11.922a19.353,19.353,0,0,0-15.81-8.228c-.262,0-.459.007-.581.014a19.375,19.375,0,0,0-16.39,8.214c-3.561,5.123-6.7,9.812-8.1,11.922L21.448,70.855V51.361A306.981,306.981,0,0,1,64,48.078a307,307,0,0,1,42.552,3.283Z"/><path d="M121.693,50.119h-5.354V43.705a1.75,1.75,0,0,0-1.387-1.712C93.4,37.412,64.273,37.609,64.015,37.611c-.287,0-29.409-.2-50.968,4.382a1.75,1.75,0,0,0-1.386,1.712v6.414H6.307a1.75,1.75,0,0,0-1.75,1.75V69.48a1.75,1.75,0,0,0,1.75,1.75h5.354v5.537a1.75,1.75,0,0,0,1.084,1.618L41.591,90.259a1.751,1.751,0,0,0,2.115-.635L54.578,73.6a11.386,11.386,0,0,1,18.844,0L84.3,89.624a1.749,1.749,0,0,0,2.114.635l28.846-11.874a1.75,1.75,0,0,0,1.084-1.618V71.23h5.354a1.75,1.75,0,0,0,1.75-1.75V51.869A1.75,1.75,0,0,0,121.693,50.119ZM8.057,67.73V53.619h3.6V67.73ZM112.839,75.6,86.393,86.481,76.318,71.635a14.885,14.885,0,0,0-24.636,0L41.608,86.481,15.161,75.6V45.13C36.186,40.924,63.7,41.1,64.015,41.111c.286-.007,27.794-.188,48.824,4.019Zm7.1-7.865h-3.6V53.619h3.6Z"/><path d="M89.042,69.031a1.752,1.752,0,0,0,2.475,0l9.821-9.821a1.75,1.75,0,1,0-2.475-2.475l-9.821,9.821A1.749,1.749,0,0,0,89.042,69.031Z"/><path d="M89.154,61.688a1.743,1.743,0,0,0,1.238-.512l2.819-2.819a1.75,1.75,0,0,0-2.475-2.475L87.917,58.7a1.75,1.75,0,0,0,1.237,2.987Z"/><path d="M40.352,56.735l-9.821,9.821a1.75,1.75,0,0,0,2.474,2.475l9.822-9.821a1.75,1.75,0,1,0-2.475-2.475Z"/><path d="M31.88,61.176,34.7,58.357a1.75,1.75,0,0,0-2.474-2.475L29.406,58.7a1.75,1.75,0,0,0,2.474,2.475Z"/></g></svg>
