<svg id="Capa_1" enable-background="new 0 0 512 512" height="512" viewBox="0 0 512 512" width="512" xmlns="http://www.w3.org/2000/svg"><g><path d="m509.071 100.125-97.196-97.197c-3.906-3.904-10.237-3.904-14.142 0l-30.614 30.613c-16.668 16.669-25.119 34.498-25.119 52.991 0 10.821 2.916 21.411 8.655 31.677l-183.223 183.225-46.506-46.506c-3.904-3.905-10.237-3.905-14.142 0l-84.197 84.197c-15.615 15.616-23.795 37.214-22.442 59.255l3.521 57.381c1.733 28.239 24.334 50.839 52.572 52.572 0 0 60.54 3.667 62.109 3.667 20.597 0 39.961-8.021 54.528-22.587l84.196-84.197c3.905-3.905 3.905-10.237 0-14.142l-47.213-47.213 69.786-69.791c1.89-1.89 2.93-4.4 2.93-7.07s-1.04-5.18-2.93-7.07-4.4-2.93-7.07-2.93-5.18 1.04-7.07 2.93l-47.476 47.476-14.145-14.146 158.49-158.49 14.15 14.14-47.38 47.38c-1.89 1.89-2.93 4.4-2.93 7.07s1.04 5.18 2.93 7.07 4.4 2.93 7.07 2.93 5.18-1.04 7.07-2.93l49.6-49.599c10.549 6.081 21.444 9.169 32.583 9.169 18.494 0 36.322-8.451 52.991-25.119.002-.002 30.613-30.614 30.613-30.614 3.906-3.906 3.906-10.237.001-14.142zm-273.213 298.019-77.125 77.125c-10.789 10.789-25.132 16.731-40.387 16.731-1.163 0-60.884-3.629-60.884-3.629-18.173-1.115-32.719-15.66-33.833-33.833l-3.521-57.382c-1.002-16.325 5.056-32.322 16.622-43.887l77.126-77.126 39.434 39.434-13.042 13.042c-3.905 3.905-3.905 10.237 0 14.143l28.284 28.284c1.953 1.952 4.512 2.929 7.071 2.929s5.119-.977 7.071-2.929l13.042-13.042zm-31.972-76.596-28.283 28.283-14.142-14.142 28.284-28.284zm221.582-171.548c-12.997 0-26.068-6.48-38.849-19.262l-5.357-5.357c-23.303-23.303-25.539-46.904-6.711-70.265l82.325 82.325c-10.391 8.342-20.923 12.559-31.408 12.559zm45.919-26.333-83.055-83.055 16.471-16.471 83.054 83.054z"/><circle cx="304.394" cy="235.179" r="10"/></g></svg>